PathFileType	4	(X/Y/Z)	C:\Data\4407\4407cd05.trc
DataRate	CameraRate	NumFrames	NumMarkers	Units	OrigDataRate	OrigDataStartFrame	OrigNumFrames
200.00	200.00	      10	29	mm	200.00	1001	      2000
Frame#	Time	Offset			RShoulder			RUpperArm			RElbow			RForearm			RWrist			LShoulder			LUpperArm			LElbow			LForearm			LWrist			LPSIS			RPSIS			RASIS			RThigh			RKnee			RShank			RAnkle			RHeel			RLat5			RToe			LASIS			LThigh			LKnee			LShank			LAnkle			LHeel			LLat5			LToe			
		X1	Y1	Z1	X2	Y2	Z2	X3	Y3	Z3	X4	Y4	Z4	X5	Y5	Z5	X6	Y6	Z6	X7	Y7	Z7	X8	Y8	Z8	X9	Y9	Z9	X10	Y10	Z10	X11	Y11	Z11	X12	Y12	Z12	X13	Y13	Z13	X14	Y14	Z14	X15	Y15	Z15	X16	Y16	Z16	X17	Y17	Z17	X18	Y18	Z18	X19	Y19	Z19	X20	Y20	Z20	X21	Y21	Z21	X22	Y22	Z22	X23	Y23	Z23	X24	Y24	Z24	X25	Y25	Z25	X26	Y26	Z26	X27	Y27	Z27	X28	Y28	Z28	X29	Y29	Z29	

1001	5.000	325.42792	-271.69769	1352.57813	472.15402	-163.47411	1458.21045	503.64029	-298.90598	1302.58081	576.61438	-297.19443	1156.13806	524.73883	-187.25008	1035.84253	540.14270	-54.24546	1067.26526	118.20655	-126.90068	1471.99292	62.37535	-260.89026	1305.35242	-25.25626	-247.38081	1198.55066	45.69727	-153.36827	1074.71533	107.98335	-13.78088	1089.23523	237.31152	-277.60590	991.63684	288.04767	-282.71286	994.69745	399.37680	-79.69887	986.49713	341.13925	5.63916	705.37048	386.47000	-14.28325	493.03925	328.83514	13.75380	421.75394	310.63281	-118.82339	106.94016	259.38937	-182.65187	78.15060	245.77386	30.36593	36.90055	355.19781	9.89052	55.02105	152.74301	-59.24436	953.90222	172.03859	4.93858	627.42590	120.76467	-65.75165	462.20029	175.85970	-130.18117	417.48480				257.03455	-429.98572	658.12164	191.82156	-558.96716	491.15033	307.30978	-555.19458	486.57312	
1002	5.005	326.54532	-271.91577	1349.78967	472.89841	-161.45116	1453.80896	506.95352	-294.05740	1294.11743	579.30664	-288.73047	1148.47852	526.31439	-176.74637	1030.98071	539.77838	-44.68042	1066.34045	117.71271	-127.56394	1467.33374	64.71687	-265.07620	1301.55554	-24.11742	-254.23149	1195.31140	43.75003	-161.91988	1068.69019	103.37780	-21.21352	1078.06592	237.74275	-280.34811	986.49255	288.47476	-286.05472	989.80780	399.39362	-81.76083	983.29620	345.59442	2.68887	696.67218	385.47522	-17.48030	488.73080	326.68607	7.72551	420.00003	309.79037	-134.61215	107.64215	257.35239	-200.79565	79.76968	245.17928	11.45840	35.41513	354.39795	-9.14344	55.11628	153.12730	-60.45133	948.88379	171.79910	13.04443	627.92438	121.04817	-51.34988	460.88275	175.39861	-115.65551	416.52283				252.37367	-416.39505	658.27722	189.84332	-542.46191	487.81735	305.36166	-540.32782	486.44797	
1003	5.010	328.11810	-272.23251	1347.79871	473.60928	-159.45134	1449.76477	509.88855	-288.76263	1286.46082	581.95020	-279.86334	1141.44348	527.57581	-165.57684	1027.70313	538.98993	-34.54638	1065.99829	117.23795	-128.21356	1462.95984	67.16643	-269.10568	1297.87476	-22.97738	-261.50165	1192.61646	41.96347	-170.62625	1063.50647	99.03729	-28.98872	1067.73071	237.64029	-283.30740	981.42804	287.82675	-289.17343	985.22443	399.41324	-84.08163	979.87805	348.87503	-1.08523	689.87134	385.05765	-20.66883	486.56107	327.09335	1.65724	417.33893	308.88824	-152.25720	107.78232	256.35135	-219.56674	80.42150	244.85631	-7.44791	34.36405	354.13995	-27.90334	55.19934	153.24310	-61.99553	944.07416	171.88794	22.31701	630.24689	121.24029	-36.85238	460.82278	176.87099	-99.40147	416.96841				247.88686	-404.04889	657.82288	187.71075	-525.67700	483.33621	303.07016	-525.47845	485.04282	
1004	5.015	329.89377	-272.57388	1345.95618	474.00839	-157.53119	1446.22473	512.40796	-282.90982	1279.88342	584.26605	-270.80899	1135.06824	528.63336	-154.28262	1024.77344	538.17413	-24.58325	1066.36438	117.01326	-128.81372	1459.24719	69.61443	-272.91412	1295.05127	-21.87825	-269.06693	1190.74500	40.17077	-179.73506	1059.41553	94.40333	-37.31839	1058.83875	236.57468	-285.68777	977.09705	286.83771	-291.50827	981.56311	399.66974	-86.58025	977.11194	349.81256	-5.20408	687.57788	384.94318	-24.21378	485.57294	329.89581	-3.15414	411.28949	308.38177	-170.46117	108.46338	257.27017	-239.08174	81.13498	244.55278	-26.22080	34.10883	353.88742	-47.20343	55.05986	153.33995	-63.38003	939.53137	172.32141	30.00260	633.56482	121.56760	-22.25742	462.30762	177.45795	-82.95216	416.80945				243.63544	-392.48154	656.41962	185.33136	-509.13977	477.90369	299.91974	-510.36209	482.01770	
1005	5.020	332.06876	-272.83621	1344.20776	474.18173	-155.65593	1443.18225	513.94324	-277.07410	1274.59729	586.44855	-261.45819	1129.82031	529.22357	-142.67805	1022.60242	537.00659	-14.42846	1067.40735	116.89507	-129.31110	1455.90137	72.50433	-276.56247	1293.24573	-20.45422	-276.85367	1189.87231	37.73532	-189.69211	1055.25403	90.05753	-45.61771	1051.26904	235.09662	-287.91592	974.07220	285.03937	-293.69464	979.90070	400.26913	-89.66908	974.83362	350.44153	-8.40605	687.99286	385.26312	-28.80768	484.69565	331.78934	-10.71696	408.03189	308.21869	-189.00395	109.32567	256.87466	-257.24655	81.77678	244.52391	-45.12440	33.87729	353.97397	-65.76553	54.81185	153.36995	-64.64547	935.24030	172.96135	37.87214	638.01428	121.55696	-7.35946	465.43030	177.41911	-67.12847	418.93735	190.73253	-381.10178	586.88654	239.59694	-381.99008	654.63806	182.78966	-492.46021	471.64563	297.36984	-495.26096	477.91504	
1006	5.025	334.00674	-273.11765	1342.73511	474.10184	-153.71599	1440.64038	514.64526	-271.15402	1270.53979	588.21423	-252.11093	1125.63879	529.62903	-131.03702	1021.38086	535.59412	-4.25558	1069.57190	116.80367	-129.79724	1453.25354	75.73141	-280.02844	1292.62195	-18.85566	-284.58353	1190.39526	36.54796	-198.17799	1054.27563	85.94585	-54.43350	1045.25061	232.94844	-290.13312	972.49707	283.00549	-295.71051	978.94067	401.11029	-92.48904	972.76654	352.00540	-11.50107	688.16821	385.84158	-34.88169	483.02579	333.38226	-19.57751	403.53217	308.62802	-206.85249	109.91158	258.01675	-276.42621	82.72046	244.72365	-63.81609	33.74780	354.19586	-84.52438	54.88174	153.49530	-66.26857	931.69940	173.82539	45.84179	643.63141	121.81625	7.99238	469.67865	176.37268	-52.91930	422.78525	188.52692	-368.89923	584.13104	235.88860	-372.54871	652.02405	180.18240	-475.63287	464.42050	293.43893	-479.85724	471.91843	
1007	5.030	336.05060	-272.99768	1341.67371	473.83701	-151.54437	1438.79565	514.41547	-266.03745	1267.36560	589.87012	-242.79532	1122.41003	529.50378	-119.23053	1021.14325	534.14636	5.60923	1072.72461	116.80012	-130.67067	1451.12671	79.20190	-283.23431	1292.94446	-17.35282	-292.25671	1192.22546	35.18087	-206.97943	1053.73999	82.09161	-63.23459	1040.94922	231.13271	-291.78687	971.62445	280.97568	-297.60077	978.50000	402.12848	-95.05042	971.08270	353.73419	-15.87628	686.85974	387.00357	-42.61113	479.71472	334.61615	-29.22087	399.15771	309.20322	-224.44548	110.59727	258.50253	-294.63007	83.66679	244.90283	-82.29268	33.57929	354.67816	-102.79894	54.64298	154.52641	-71.02819	927.42407	175.10223	53.26283	650.29828	122.74249	23.77895	475.00870	177.96719	-35.89816	426.59616	186.28802	-357.11365	580.57690	232.26207	-363.51868	648.58984	177.18355	-458.73654	456.56830	289.81696	-463.79352	463.95956	
1008	5.035	337.84595	-272.69250	1340.34351	473.70544	-149.14990	1437.47095	513.28979	-261.62482	1264.24500	590.92212	-233.90808	1120.13232	529.26843	-107.36763	1021.93427	532.39838	15.18086	1076.65857	116.71634	-131.81776	1449.75330	82.63654	-286.56488	1294.37781	-15.77435	-299.61496	1195.01587	34.21827	-216.60670	1053.99463	78.51104	-72.03371	1038.25305	229.88728	-293.36102	971.02979	279.64359	-299.33530	977.90845	402.97687	-96.92479	969.55817	354.20001	-21.94437	684.40344	388.47641	-51.96569	475.03436	336.92200	-38.36181	394.48160	309.96036	-241.65413	111.10132	258.50699	-312.04507	84.88329	244.98547	-100.80357	33.80978	354.65710	-121.31006	54.46862	155.66573	-71.39371	925.76111	176.27911	60.78313	658.00720	123.27813	39.02518	481.54413	178.88968	-20.12618	431.82782	183.57217	-345.73083	576.22870	229.27100	-355.62488	644.30365	174.33687	-441.54593	448.15585	285.51212	-448.09918	456.14731	
1009	5.040	339.29788	-272.26755	1339.30127	473.23865	-146.72438	1436.73950	511.72357	-257.73795	1261.38293	591.54102	-225.62437	1118.65649	528.46484	-96.26129	1023.64819	530.53455	24.49233	1081.75537	116.60510	-133.45738	1449.18445	85.71454	-289.67377	1296.72522	-13.77187	-307.08496	1198.67053	33.71494	-226.09535	1055.24805	75.34415	-81.09241	1036.54199	229.50052	-294.88226	970.67249	278.97119	-300.77155	977.63470	403.66141	-98.73164	968.08862	353.58514	-29.27665	680.49622	389.68655	-61.62443	470.08914	337.64032	-49.57404	390.45444	310.84732	-259.04721	112.00680	259.09879	-330.05685	86.32143	245.03104	-119.49020	33.79374	354.88681	-139.92084	54.33182	156.06618	-72.51091	924.44098	177.37886	67.42529	666.22772	124.22107	53.88514	488.97318	179.62305	-4.61910	437.93201	181.10938	-334.80396	571.21771	226.87239	-348.11963	639.33588	170.98369	-424.18039	439.11328	280.85031	-432.01395	447.17743	
1010	5.045	340.56393	-271.78909	1338.69397	472.98898	-144.08456	1436.76221	510.17068	-253.86436	1258.84680	591.65656	-217.97238	1117.89746	528.17896	-86.32520	1026.25879	528.28290	33.22652	1087.79749	116.49285	-135.47447	1449.16772	88.52548	-293.29611	1299.61609	-11.96234	-314.46884	1202.89270	33.63765	-235.66457	1057.30542	72.25845	-89.91382	1036.83337	229.66466	-296.08148	970.62848	279.23233	-302.34665	977.34027	404.32101	-102.59704	966.78131	352.59641	-36.02708	676.72644	390.98700	-72.07811	465.35818	338.32895	-61.33815	386.53650	310.76843	-276.32849	113.18629	259.72037	-348.81778	88.56864	245.10641	-137.81554	34.09637	355.12659	-158.33606	54.12926	156.49521	-73.51813	923.91455	178.76973	74.37065	675.39716	125.38383	68.34808	497.08295	181.35683	12.73575	443.92679	179.23465	-323.95938	565.99164	225.08327	-341.13144	633.46643	167.59058	-406.71149	429.79977	277.60278	-416.61496	437.37720	
